<svg width="25" height="26" viewBox="0 0 25 26" fill="none" xmlns="http://www.w3.org/2000/svg">
<g filter="url(#filter0_d_597_446)">
<path d="M6.71216 17.3193H17.8616C19.2288 17.3193 19.9192 16.6289 19.9192 15.2822V7.39356C19.9192 6.04688 19.2288 5.35645 17.8616 5.35645H6.71216C5.34497 5.35645 4.64771 6.04005 4.64771 7.39356V15.2822C4.64771 16.6357 5.34497 17.3193 6.71216 17.3193ZM6.74634 16.1982C6.11743 16.1982 5.7688 15.8633 5.7688 15.207V7.46192C5.7688 6.80567 6.11743 6.47071 6.74634 6.47071H17.8274C18.4495 6.47071 18.8049 6.80567 18.8049 7.46192V15.207C18.8049 15.8633 18.4495 16.1982 17.8274 16.1982H6.74634ZM15.6877 11.2285C16.5354 11.2285 17.2327 10.5381 17.2327 9.67677C17.2327 8.82227 16.5354 8.12501 15.6877 8.12501C14.8264 8.12501 14.136 8.82227 14.136 9.67677C14.136 10.5381 14.8264 11.2285 15.6877 11.2285ZM7.79224 9.34864H11.8801C12.1399 9.34864 12.3381 9.13673 12.3381 8.8838C12.3381 8.63087 12.1399 8.42579 11.8801 8.42579H7.79224C7.53247 8.42579 7.33423 8.63087 7.33423 8.8838C7.33423 9.13673 7.53247 9.34864 7.79224 9.34864ZM7.79224 11.0645H10.7727C11.0325 11.0645 11.2375 10.8662 11.2375 10.6065C11.2375 10.3535 11.0325 10.1484 10.7727 10.1484H7.79224C7.53247 10.1484 7.33423 10.3535 7.33423 10.6065C7.33423 10.8662 7.53247 11.0645 7.79224 11.0645Z" fill="white" fill-opacity="0.6"/>
</g>
<defs>
<filter id="filter0_d_597_446" x="-3" y="0" width="32" height="32" filterUnits="userSpaceOnUse" color-interpolation-filters="sRGB">
<feFlood flood-opacity="0" result="BackgroundImageFix"/>
<feColorMatrix in="SourceAlpha" type="matrix" values="0 0 0 0 0 0 0 0 0 0 0 0 0 0 0 0 0 0 127 0" result="hardAlpha"/>
<feOffset dy="4"/>
<feGaussianBlur stdDeviation="2"/>
<feComposite in2="hardAlpha" operator="out"/>
<feColorMatrix type="matrix" values="0 0 0 0 0 0 0 0 0 0 0 0 0 0 0 0 0 0 0.25 0"/>
<feBlend mode="normal" in2="BackgroundImageFix" result="effect1_dropShadow_597_446"/>
<feBlend mode="normal" in="SourceGraphic" in2="effect1_dropShadow_597_446" result="shape"/>
</filter>
</defs>
</svg>
