<?xml version="1.0" standalone="no"?>
<svg xmlns:xlink="http://www.w3.org/1999/xlink" id="wave" style="transform:rotate(0deg); transition: 0.3s" viewBox="0 0 1440 180" version="1.1" xmlns="http://www.w3.org/2000/svg"><defs><linearGradient id="sw-gradient-0" x1="0" x2="0" y1="1" y2="0"><stop stop-color="rgba(44.066, 16.358, 198.97, 1)" offset="0%"/><stop stop-color="rgba(188.533, 11, 255, 1)" offset="100%"/></linearGradient></defs><path style="transform:translate(0, 0px); opacity:1" fill="url(#sw-gradient-0)" d="M0,72L60,78C120,84,240,96,360,90C480,84,600,60,720,42C840,24,960,12,1080,12C1200,12,1320,24,1440,33C1560,42,1680,48,1800,48C1920,48,2040,42,2160,57C2280,72,2400,108,2520,108C2640,108,2760,72,2880,51C3000,30,3120,24,3240,39C3360,54,3480,90,3600,111C3720,132,3840,138,3960,129C4080,120,4200,96,4320,72C4440,48,4560,24,4680,33C4800,42,4920,84,5040,111C5160,138,5280,150,5400,156C5520,162,5640,162,5760,144C5880,126,6000,90,6120,90C6240,90,6360,126,6480,117C6600,108,6720,54,6840,48C6960,42,7080,84,7200,111C7320,138,7440,150,7560,132C7680,114,7800,66,7920,45C8040,24,8160,30,8280,42C8400,54,8520,72,8580,81L8640,90L8640,180L8580,180C8520,180,8400,180,8280,180C8160,180,8040,180,7920,180C7800,180,7680,180,7560,180C7440,180,7320,180,7200,180C7080,180,6960,180,6840,180C6720,180,6600,180,6480,180C6360,180,6240,180,6120,180C6000,180,5880,180,5760,180C5640,180,5520,180,5400,180C5280,180,5160,180,5040,180C4920,180,4800,180,4680,180C4560,180,4440,180,4320,180C4200,180,4080,180,3960,180C3840,180,3720,180,3600,180C3480,180,3360,180,3240,180C3120,180,3000,180,2880,180C2760,180,2640,180,2520,180C2400,180,2280,180,2160,180C2040,180,1920,180,1800,180C1680,180,1560,180,1440,180C1320,180,1200,180,1080,180C960,180,840,180,720,180C600,180,480,180,360,180C240,180,120,180,60,180L0,180Z"/><defs><linearGradient id="sw-gradient-1" x1="0" x2="0" y1="1" y2="0"><stop stop-color="rgba(243, 62, 237.124, 1)" offset="0%"/><stop stop-color="rgba(126.294, 63.231, 176.202, 1)" offset="100%"/></linearGradient></defs><path style="transform:translate(0, 50px); opacity:0.9" fill="url(#sw-gradient-1)" d="M0,72L60,87C120,102,240,132,360,147C480,162,600,162,720,144C840,126,960,90,1080,66C1200,42,1320,30,1440,30C1560,30,1680,42,1800,60C1920,78,2040,102,2160,120C2280,138,2400,150,2520,150C2640,150,2760,138,2880,138C3000,138,3120,150,3240,147C3360,144,3480,126,3600,108C3720,90,3840,72,3960,60C4080,48,4200,42,4320,60C4440,78,4560,120,4680,129C4800,138,4920,114,5040,87C5160,60,5280,30,5400,39C5520,48,5640,96,5760,114C5880,132,6000,120,6120,111C6240,102,6360,96,6480,87C6600,78,6720,66,6840,69C6960,72,7080,90,7200,108C7320,126,7440,144,7560,138C7680,132,7800,102,7920,78C8040,54,8160,36,8280,33C8400,30,8520,42,8580,48L8640,54L8640,180L8580,180C8520,180,8400,180,8280,180C8160,180,8040,180,7920,180C7800,180,7680,180,7560,180C7440,180,7320,180,7200,180C7080,180,6960,180,6840,180C6720,180,6600,180,6480,180C6360,180,6240,180,6120,180C6000,180,5880,180,5760,180C5640,180,5520,180,5400,180C5280,180,5160,180,5040,180C4920,180,4800,180,4680,180C4560,180,4440,180,4320,180C4200,180,4080,180,3960,180C3840,180,3720,180,3600,180C3480,180,3360,180,3240,180C3120,180,3000,180,2880,180C2760,180,2640,180,2520,180C2400,180,2280,180,2160,180C2040,180,1920,180,1800,180C1680,180,1560,180,1440,180C1320,180,1200,180,1080,180C960,180,840,180,720,180C600,180,480,180,360,180C240,180,120,180,60,180L0,180Z"/><defs><linearGradient id="sw-gradient-2" x1="0" x2="0" y1="1" y2="0"><stop stop-color="rgba(62, 151.031, 243, 1)" offset="0%"/><stop stop-color="rgba(138.941, 11, 255, 1)" offset="100%"/></linearGradient></defs><path style="transform:translate(0, 100px); opacity:0.8" fill="url(#sw-gradient-2)" d="M0,108L60,114C120,120,240,132,360,120C480,108,600,72,720,66C840,60,960,84,1080,99C1200,114,1320,120,1440,126C1560,132,1680,138,1800,126C1920,114,2040,84,2160,69C2280,54,2400,54,2520,54C2640,54,2760,54,2880,66C3000,78,3120,102,3240,102C3360,102,3480,78,3600,78C3720,78,3840,102,3960,105C4080,108,4200,90,4320,69C4440,48,4560,24,4680,39C4800,54,4920,108,5040,132C5160,156,5280,150,5400,132C5520,114,5640,84,5760,87C5880,90,6000,126,6120,117C6240,108,6360,54,6480,36C6600,18,6720,36,6840,60C6960,84,7080,114,7200,111C7320,108,7440,72,7560,69C7680,66,7800,96,7920,114C8040,132,8160,138,8280,126C8400,114,8520,84,8580,69L8640,54L8640,180L8580,180C8520,180,8400,180,8280,180C8160,180,8040,180,7920,180C7800,180,7680,180,7560,180C7440,180,7320,180,7200,180C7080,180,6960,180,6840,180C6720,180,6600,180,6480,180C6360,180,6240,180,6120,180C6000,180,5880,180,5760,180C5640,180,5520,180,5400,180C5280,180,5160,180,5040,180C4920,180,4800,180,4680,180C4560,180,4440,180,4320,180C4200,180,4080,180,3960,180C3840,180,3720,180,3600,180C3480,180,3360,180,3240,180C3120,180,3000,180,2880,180C2760,180,2640,180,2520,180C2400,180,2280,180,2160,180C2040,180,1920,180,1800,180C1680,180,1560,180,1440,180C1320,180,1200,180,1080,180C960,180,840,180,720,180C600,180,480,180,360,180C240,180,120,180,60,180L0,180Z"/><defs><linearGradient id="sw-gradient-3" x1="0" x2="0" y1="1" y2="0"><stop stop-color="rgba(77.2, 62, 243, 1)" offset="0%"/><stop stop-color="rgba(255, 11, 205.752, 1)" offset="100%"/></linearGradient></defs><path style="transform:translate(0, 150px); opacity:0.7" fill="url(#sw-gradient-3)" d="M0,108L60,99C120,90,240,72,360,72C480,72,600,90,720,96C840,102,960,96,1080,81C1200,66,1320,42,1440,51C1560,60,1680,102,1800,114C1920,126,2040,108,2160,105C2280,102,2400,114,2520,111C2640,108,2760,90,2880,93C3000,96,3120,120,3240,114C3360,108,3480,72,3600,60C3720,48,3840,60,3960,75C4080,90,4200,108,4320,99C4440,90,4560,54,4680,60C4800,66,4920,114,5040,120C5160,126,5280,90,5400,69C5520,48,5640,42,5760,42C5880,42,6000,48,6120,66C6240,84,6360,114,6480,111C6600,108,6720,72,6840,66C6960,60,7080,84,7200,78C7320,72,7440,36,7560,27C7680,18,7800,36,7920,39C8040,42,8160,30,8280,24C8400,18,8520,18,8580,18L8640,18L8640,180L8580,180C8520,180,8400,180,8280,180C8160,180,8040,180,7920,180C7800,180,7680,180,7560,180C7440,180,7320,180,7200,180C7080,180,6960,180,6840,180C6720,180,6600,180,6480,180C6360,180,6240,180,6120,180C6000,180,5880,180,5760,180C5640,180,5520,180,5400,180C5280,180,5160,180,5040,180C4920,180,4800,180,4680,180C4560,180,4440,180,4320,180C4200,180,4080,180,3960,180C3840,180,3720,180,3600,180C3480,180,3360,180,3240,180C3120,180,3000,180,2880,180C2760,180,2640,180,2520,180C2400,180,2280,180,2160,180C2040,180,1920,180,1800,180C1680,180,1560,180,1440,180C1320,180,1200,180,1080,180C960,180,840,180,720,180C600,180,480,180,360,180C240,180,120,180,60,180L0,180Z"/></svg>