<?xml version="1.0" standalone="no"?>
<svg xmlns:xlink="http://www.w3.org/1999/xlink" id="wave" style="transform:rotate(0deg); transition: 0.3s" viewBox="0 0 1440 200" version="1.1" xmlns="http://www.w3.org/2000/svg"><defs><linearGradient id="sw-gradient-0" x1="0" x2="0" y1="1" y2="0"><stop stop-color="rgba(205.086, 102.615, 205.231, 1)" offset="0%"/><stop stop-color="rgba(234.829, 231.706, 224.803, 1)" offset="100%"/></linearGradient></defs><path style="transform:translate(0, 0px); opacity:1" fill="url(#sw-gradient-0)" d="M0,60L120,76.7C240,93,480,127,720,130C960,133,1200,107,1440,103.3C1680,100,1920,120,2160,133.3C2400,147,2640,153,2880,133.3C3120,113,3360,67,3600,46.7C3840,27,4080,33,4320,56.7C4560,80,4800,120,5040,140C5280,160,5520,160,5760,146.7C6000,133,6240,107,6480,96.7C6720,87,6960,93,7200,100C7440,107,7680,113,7920,123.3C8160,133,8400,147,8640,133.3C8880,120,9120,80,9360,73.3C9600,67,9840,93,10080,90C10320,87,10560,53,10800,40C11040,27,11280,33,11520,53.3C11760,73,12000,107,12240,113.3C12480,120,12720,100,12960,80C13200,60,13440,40,13680,46.7C13920,53,14160,87,14400,93.3C14640,100,14880,80,15120,70C15360,60,15600,60,15840,63.3C16080,67,16320,73,16560,76.7C16800,80,17040,80,17160,80L17280,80L17280,200L17160,200C17040,200,16800,200,16560,200C16320,200,16080,200,15840,200C15600,200,15360,200,15120,200C14880,200,14640,200,14400,200C14160,200,13920,200,13680,200C13440,200,13200,200,12960,200C12720,200,12480,200,12240,200C12000,200,11760,200,11520,200C11280,200,11040,200,10800,200C10560,200,10320,200,10080,200C9840,200,9600,200,9360,200C9120,200,8880,200,8640,200C8400,200,8160,200,7920,200C7680,200,7440,200,7200,200C6960,200,6720,200,6480,200C6240,200,6000,200,5760,200C5520,200,5280,200,5040,200C4800,200,4560,200,4320,200C4080,200,3840,200,3600,200C3360,200,3120,200,2880,200C2640,200,2400,200,2160,200C1920,200,1680,200,1440,200C1200,200,960,200,720,200C480,200,240,200,120,200L0,200Z"/></svg>