<?xml version="1.0" standalone="no"?>
<svg xmlns:xlink="http://www.w3.org/1999/xlink" id="wave" style="transform:rotate(0deg); transition: 0.3s" viewBox="0 0 1440 180" version="1.1" xmlns="http://www.w3.org/2000/svg"><defs><linearGradient id="sw-gradient-0" x1="0" x2="0" y1="1" y2="0"><stop stop-color="rgba(227.958, 198.956, 227.999, 1)" offset="0%"/><stop stop-color="rgba(153.978, 63.058, 216.615, 1)" offset="100%"/></linearGradient></defs><path style="transform:translate(0, 0px); opacity:1" fill="url(#sw-gradient-0)" d="M0,162L60,141C120,120,240,78,360,78C480,78,600,120,720,117C840,114,960,66,1080,66C1200,66,1320,114,1440,123C1560,132,1680,102,1800,87C1920,72,2040,72,2160,87C2280,102,2400,132,2520,132C2640,132,2760,102,2880,99C3000,96,3120,120,3240,108C3360,96,3480,48,3600,36C3720,24,3840,48,3960,51C4080,54,4200,36,4320,30C4440,24,4560,30,4680,30C4800,30,4920,24,5040,18C5160,12,5280,6,5400,24C5520,42,5640,84,5760,99C5880,114,6000,102,6120,102C6240,102,6360,114,6480,102C6600,90,6720,54,6840,54C6960,54,7080,90,7200,102C7320,114,7440,102,7560,93C7680,84,7800,78,7920,78C8040,78,8160,84,8280,93C8400,102,8520,114,8580,120L8640,126L8640,180L8580,180C8520,180,8400,180,8280,180C8160,180,8040,180,7920,180C7800,180,7680,180,7560,180C7440,180,7320,180,7200,180C7080,180,6960,180,6840,180C6720,180,6600,180,6480,180C6360,180,6240,180,6120,180C6000,180,5880,180,5760,180C5640,180,5520,180,5400,180C5280,180,5160,180,5040,180C4920,180,4800,180,4680,180C4560,180,4440,180,4320,180C4200,180,4080,180,3960,180C3840,180,3720,180,3600,180C3480,180,3360,180,3240,180C3120,180,3000,180,2880,180C2760,180,2640,180,2520,180C2400,180,2280,180,2160,180C2040,180,1920,180,1800,180C1680,180,1560,180,1440,180C1320,180,1200,180,1080,180C960,180,840,180,720,180C600,180,480,180,360,180C240,180,120,180,60,180L0,180Z"/></svg>